# xmcd CD database file
#
# Track frame offsets:
#	150
#	12974
#	43610
#	73134
#	110550
#	120612
#	148390
#	175882
#	205581
#	226992
#
# Disc length: 3356 seconds
#
# Revision: 0
# Processed by: cddbd v1.5PL3 Copyright (c) Steve Scherf et al.
# Submitted via: CDex 1.51
#
DISCID=8e0d1a0a
DTITLE=Mimi Fox - She's The Woman
DYEAR=2004
DGENRE=Jazz
TTITLE0=East Coast Attitude
TTITLE1=Sosua
TTITLE2=Buddy's Blues
TTITLE3=Angel Eyes
TTITLE4=Darn That Dream
TTITLE5=Raquel, Mi Amor
TTITLE6=Denny's Tune
TTITLE7=Lullaby Of The Leaves
TTITLE8=On The Sunny Side Of The Street
TTITLE9=She's A Woman
EXTD=YEAR: 2004
EXTT0=
EXTT1=
EXTT2=
EXTT3=
EXTT4=
EXTT5=
EXTT6=
EXTT7=
EXTT8=
EXTT9=
PLAYORDER=
